<svg width="512" height="512" viewBox="0 0 512 512" fill="none" xmlns="http://www.w3.org/2000/svg">
<rect width="512" height="512" rx="120" fill="black"/>
<g opacity="0.8">
<circle cx="256" cy="256" r="230" stroke="url(#paint0_radial_1_2)" stroke-width="2"/>
<circle cx="256" cy="256" r="150" stroke="url(#paint1_radial_1_2)" stroke-width="1"/>
</g>
<g filter="url(#filter0_f_1_2)">
<circle cx="256" cy="256" r="80" fill="#3B82F6" fill-opacity="0.4"/>
</g>
<circle cx="256" cy="256" r="20" fill="white"/>
<path d="M256 256L350 150" stroke="url(#paint2_linear_1_2)" stroke-width="2"/>
<path d="M256 256L150 150" stroke="url(#paint3_linear_1_2)" stroke-width="2"/>
<path d="M256 256L350 362" stroke="url(#paint4_linear_1_2)" stroke-width="2"/>
<path d="M256 256L150 362" stroke="url(#paint5_linear_1_2)" stroke-width="2"/>
<path d="M256 256L400 256" stroke="url(#paint6_linear_1_2)" stroke-width="2"/>
<path d="M256 256L112 256" stroke="url(#paint7_linear_1_2)" stroke-width="2"/>
<circle cx="350" cy="150" r="8" fill="#60A5FA"/>
<circle cx="150" cy="150" r="8" fill="#60A5FA"/>
<circle cx="350" cy="362" r="8" fill="#60A5FA"/>
<circle cx="150" cy="362" r="8" fill="#60A5FA"/>
<circle cx="400" cy="256" r="6" fill="#8B5CF6"/>
<circle cx="112" cy="256" r="6" fill="#8B5CF6"/>
<defs>
<filter id="filter0_f_1_2" x="126" y="126" width="260" height="260" filterUnits="userSpaceOnUse" color-interpolation-filters="sRGB">
<feFlood flood-opacity="0" result="BackgroundImageFix"/>
<feBlend mode="normal" in="SourceGraphic" in2="BackgroundImageFix" result="shape"/>
<feGaussianBlur stdDeviation="25" result="effect1_foregroundBlur_1_2"/>
</filter>
<radialGradient id="paint0_radial_1_2" cx="0" cy="0" r="1" gradientUnits="userSpaceOnUse" gradientTransform="translate(256 256) rotate(90) scale(230)">
<stop stop-color="#3B82F6"/>
<stop offset="1" stop-color="#1D4ED8" stop-opacity="0"/>
</radialGradient>
<radialGradient id="paint1_radial_1_2" cx="0" cy="0" r="1" gradientUnits="userSpaceOnUse" gradientTransform="translate(256 256) rotate(90) scale(150)">
<stop stop-color="#8B5CF6"/>
<stop offset="1" stop-color="#7C3AED" stop-opacity="0"/>
</radialGradient>
<linearGradient id="paint2_linear_1_2" x1="256" y1="256" x2="350" y2="150" gradientUnits="userSpaceOnUse">
<stop stop-color="white"/>
<stop offset="1" stop-color="#3B82F6" stop-opacity="0"/>
</linearGradient>
<linearGradient id="paint3_linear_1_2" x1="256" y1="256" x2="150" y2="150" gradientUnits="userSpaceOnUse">
<stop stop-color="white"/>
<stop offset="1" stop-color="#3B82F6" stop-opacity="0"/>
</linearGradient>
<linearGradient id="paint4_linear_1_2" x1="256" y1="256" x2="350" y2="362" gradientUnits="userSpaceOnUse">
<stop stop-color="white"/>
<stop offset="1" stop-color="#3B82F6" stop-opacity="0"/>
</linearGradient>
<linearGradient id="paint5_linear_1_2" x1="256" y1="256" x2="150" y2="362" gradientUnits="userSpaceOnUse">
<stop stop-color="white"/>
<stop offset="1" stop-color="#3B82F6" stop-opacity="0"/>
</linearGradient>
<linearGradient id="paint6_linear_1_2" x1="256" y1="256" x2="400" y2="256" gradientUnits="userSpaceOnUse">
<stop stop-color="white"/>
<stop offset="1" stop-color="#8B5CF6" stop-opacity="0"/>
</linearGradient>
<linearGradient id="paint7_linear_1_2" x1="256" y1="256" x2="112" y2="256" gradientUnits="userSpaceOnUse">
<stop stop-color="white"/>
<stop offset="1" stop-color="#8B5CF6" stop-opacity="0"/>
</linearGradient>
</defs>
</svg>
